<svg width="136" height="110" viewBox="0 0 136 110" fill="none" xmlns="http://www.w3.org/2000/svg">
<path d="M72.0107 7.06803C72.9903 2.09108 77.0196 -0.953005 81.005 0.270334C84.9907 1.49367 87.4281 6.52535 86.4485 11.5026L68.2555 102.932C67.2756 107.909 63.2466 110.953 59.2609 109.73C55.2752 108.506 52.8379 103.475 53.8175 98.4973L72.0107 7.06803ZM40.5474 81.4847C43.6329 84.8572 43.9461 90.7175 41.2454 94.5706C38.5446 98.4234 33.8518 98.8145 30.7665 95.442L2.53509 64.5517C-0.550147 61.1792 -0.863319 55.3189 1.83756 51.4661C2.06945 51.1354 2.31568 50.8319 2.57254 50.5539L30.7665 19.7048C33.8518 16.332 38.5446 16.723 41.2454 20.5758C43.9461 24.429 43.6329 30.2892 40.5474 33.6617L18.6944 57.5732L40.5474 81.4847ZM105.233 95.442C102.148 98.8145 97.4554 98.4234 94.7546 94.5706C92.0539 90.7175 92.3671 84.8572 95.4526 81.4847L117.306 57.5732L95.4526 33.6617C92.3671 30.2892 92.0539 24.429 94.7546 20.5758C97.4554 16.723 102.148 16.332 105.233 19.7048L133.427 50.5539C133.689 50.8366 133.935 51.1414 134.162 51.4661C136.863 55.3189 136.55 61.1792 133.465 64.5517L105.233 95.442Z" fill="#E65F78"/>
</svg>
