<svg width="75" height="75" viewBox="0 0 75 75" fill="none" xmlns="http://www.w3.org/2000/svg">
<path d="M10.4529 67.5028L4.43457 0H70.5658L64.5411 67.4921L37.4598 75L10.4529 67.5028Z" fill="#264DE4"/>
<path d="M59.383 63.1945L64.5316 5.51923H37.5V69.2613L59.383 63.1945Z" fill="#2965F1"/>
<path d="M18.2313 30.5552L18.9732 38.834H37.4999V30.5552H18.2313ZM17.4929 22.0774H37.4999V13.7984H16.7402L17.4929 22.0774ZM37.4999 52.0565L37.4635 52.0661L28.2432 49.5765L27.6539 42.9735H19.343L20.503 55.9727L37.4618 60.6807L37.4999 60.67V52.0565Z" fill="#EBEBEB"/>
<path d="M37.4717 30.5552V38.834H47.6663L46.7053 49.5712L37.4717 52.0633V60.6766L54.4439 55.9727L54.5685 54.5739L56.5138 32.7782L56.7159 30.5552L58.2105 13.7984H37.4717V22.0774H49.1375L48.384 30.5552H37.4717Z" fill="white"/>
</svg>
