<svg width="75" height="75" viewBox="0 0 75 75" fill="none" xmlns="http://www.w3.org/2000/svg">
<path d="M10.4004 67.3828L4.39453 0H70.459L64.4531 67.3828L37.3535 75" fill="#E34F26"/>
<path d="M37.5 69.1406L59.3262 63.1348L64.4531 5.41992H37.5" fill="#EF652A"/>
<path d="M37.5 30.4688H26.5137L25.7812 21.9727H37.5V13.7695H37.3535H16.6992L16.8457 15.9668L18.8965 38.8184H37.5V30.4688ZM37.5 52.002H37.3535L28.125 49.5117L27.5391 42.9199H23.1445H19.3359L20.3613 55.957L37.3535 60.6445H37.5V52.002Z" fill="#EBEBEB"/>
<path d="M37.3535 30.4688V38.8184H47.6074L46.582 49.5117L37.3535 52.002V60.6445L54.3457 55.957L54.4922 54.4922L56.3965 32.666L56.6895 30.4688H54.3457H37.3535ZM37.3535 13.7695V18.8965V21.9727H57.4219L57.5684 20.2148L58.0078 15.9668L58.1543 13.7695H37.3535Z" fill="white"/>
</svg>
