<svg width="75" height="75" viewBox="0 0 75 75" fill="none" xmlns="http://www.w3.org/2000/svg">
<g clip-path="url(#clip0_253_299)">
<path d="M75 0H0V75H75V0Z" fill="#F7DF1E"/>
<path d="M50.3809 58.5941C51.8916 61.0607 53.8571 62.8738 57.3333 62.8738C60.2535 62.8738 62.119 61.4143 62.119 59.3976C62.119 56.981 60.2023 56.125 56.988 54.7191L55.2261 53.9631C50.1404 51.7964 46.7618 49.0822 46.7618 43.3441C46.7618 38.0584 50.7892 34.0345 57.0833 34.0345C61.5642 34.0345 64.7857 35.5941 67.1071 39.6774L61.619 43.2012C60.4106 41.0345 59.1071 40.181 57.0833 40.181C55.019 40.181 53.7107 41.4905 53.7107 43.2012C53.7107 45.3155 55.0202 46.1714 58.044 47.481L59.8059 48.2357C65.794 50.8036 69.1749 53.4214 69.1749 59.3072C69.1749 65.6524 64.1904 69.1286 57.4964 69.1286C50.9511 69.1286 46.7226 66.0095 44.6535 61.9214L50.3809 58.5941ZM25.4845 59.2048C26.5916 61.1691 27.5987 62.8298 30.0202 62.8298C32.3357 62.8298 33.7964 61.9238 33.7964 58.4012V34.4369H40.844V58.4964C40.844 65.7941 36.5654 69.1155 30.3202 69.1155C24.6773 69.1155 21.4095 66.1953 19.7476 62.678L25.4845 59.2048Z" fill="black"/>
</g>
<defs>
<clipPath id="clip0_253_299">
<rect width="75" height="75" fill="white"/>
</clipPath>
</defs>
</svg>
