<svg width="180" height="45" viewBox="0 0 180 45" fill="none" xmlns="http://www.w3.org/2000/svg">
<g clip-path="url(#clip0_247_619)" filter="url(#filter0_d_247_619)">
<path d="M118.34 0.160316H148.3V6.01436H136.415V36.8115H130.472V6.01436H118.34V0.160316ZM69.0683 0.160316V6.01436H45.0538V15.4316H64.3663V21.2856H45.0538V30.9574H69.0683V36.8119H39.1115V6.01436H39.1089V0.160316H69.0683ZM84.028 0.175567H76.2513L104.106 36.8267H111.905L97.9761 18.5136L111.883 0.203296L104.106 0.216236L94.0825 13.3949L84.028 0.175567ZM92.0081 26.3558L88.1136 21.2297L76.229 36.8549H84.028L92.0081 26.3558Z" fill="black"/>
<path fill-rule="evenodd" clip-rule="evenodd" d="M39.3198 36.8115L11.4279 0.145065H4V36.7962H9.94229V7.97941L31.8548 36.8115H39.3198Z" fill="black"/>
<path d="M149.636 36.5878C149.429 36.5914 149.224 36.5508 149.032 36.4685C148.84 36.3863 148.666 36.264 148.52 36.109C148.21 35.7897 148.057 35.4033 148.061 34.9453C148.057 34.5003 148.21 34.1181 148.52 33.7987C148.666 33.6438 148.84 33.5215 149.032 33.4392C149.224 33.357 149.429 33.3164 149.636 33.32C150.054 33.32 150.421 33.4794 150.731 33.7987C151.045 34.1176 151.202 34.5003 151.206 34.9453C151.205 35.2374 151.129 35.5236 150.984 35.7726C150.843 36.0186 150.645 36.2224 150.408 36.3651C150.175 36.5128 149.908 36.5898 149.636 36.5878ZM159.778 21.1474H162.411V31.8878C162.407 32.8744 162.206 33.7188 161.811 34.4287C161.413 35.1385 160.861 35.6802 160.153 36.0623C159.448 36.4404 158.623 36.634 157.684 36.634C156.827 36.634 156.058 36.47 155.373 36.1506C154.689 35.8317 154.145 35.3529 153.747 34.7226C153.344 34.0927 153.146 33.307 153.146 32.3665H155.784C155.788 32.7779 155.877 33.1351 156.046 33.4332C156.212 33.7281 156.455 33.9657 156.746 34.1176C157.048 34.2775 157.395 34.3575 157.785 34.3575C158.208 34.3575 158.57 34.2651 158.864 34.0756C159.158 33.8907 159.383 33.6134 159.541 33.2442C159.693 32.8791 159.774 32.4252 159.778 31.8878V21.1474ZM173.246 25.3479C173.182 24.6967 172.9 24.1884 172.409 23.8274C171.913 23.4623 171.273 23.2812 170.488 23.2812C169.937 23.2812 169.462 23.3694 169.067 23.5418C168.672 23.7184 168.366 23.9531 168.157 24.2517C167.948 24.5498 167.843 24.8899 167.835 25.2721C167.835 25.5914 167.907 25.8683 168.048 26.0993C168.189 26.335 168.378 26.5324 168.624 26.6918C168.876 26.8603 169.147 26.9971 169.429 27.0994C169.727 27.2085 170.025 27.3009 170.323 27.3767L171.696 27.7335C172.243 27.8652 172.778 28.048 173.294 28.2798C173.791 28.4973 174.256 28.7886 174.675 29.1449C175.078 29.4879 175.407 29.9173 175.642 30.4047C175.879 30.8964 176 31.4718 176 32.1355C176 33.0302 175.783 33.8154 175.344 34.4961C174.905 35.1723 174.273 35.7014 173.443 36.0836C172.618 36.4616 171.619 36.6548 170.444 36.6548C169.308 36.6548 168.318 36.47 167.484 36.1002C166.647 35.7351 165.995 35.1972 165.523 34.492C165.052 33.7863 164.799 32.9253 164.763 31.9132H167.372C167.408 32.4419 167.569 32.8832 167.843 33.24C168.12 33.5926 168.483 33.8533 168.926 34.0298C169.373 34.2017 169.872 34.29 170.424 34.29C171 34.29 171.507 34.1976 171.946 34.0173C172.38 33.8366 172.723 33.5843 172.968 33.2566C173.218 32.9331 173.343 32.5514 173.347 32.1142C173.343 31.7154 173.23 31.3836 173.012 31.1229C172.791 30.8627 172.485 30.6441 172.094 30.468C171.648 30.2727 171.187 30.114 170.718 29.9934L169.051 29.5479C167.847 29.2244 166.892 28.7331 166.196 28.0736C165.496 27.4142 165.149 26.5407 165.149 25.444C165.149 24.5456 165.382 23.7558 165.854 23.0797C166.321 22.4035 166.961 21.8781 167.77 21.5047C168.584 21.1266 169.502 20.9418 170.524 20.9418C171.563 20.9418 172.473 21.1266 173.258 21.5047C174.043 21.8785 174.66 22.3994 175.106 23.063C175.553 23.7267 175.787 24.4864 175.799 25.3479H173.246Z" fill="black"/>
</g>
<defs>
<filter id="filter0_d_247_619" x="0" y="0" width="180" height="45" filterUnits="userSpaceOnUse" color-interpolation-filters="sRGB">
<feFlood flood-opacity="0" result="BackgroundImageFix"/>
<feColorMatrix in="SourceAlpha" type="matrix" values="0 0 0 0 0 0 0 0 0 0 0 0 0 0 0 0 0 0 127 0" result="hardAlpha"/>
<feOffset dy="4"/>
<feGaussianBlur stdDeviation="2"/>
<feComposite in2="hardAlpha" operator="out"/>
<feColorMatrix type="matrix" values="0 0 0 0 0 0 0 0 0 0 0 0 0 0 0 0 0 0 0.25 0"/>
<feBlend mode="normal" in2="BackgroundImageFix" result="effect1_dropShadow_247_619"/>
<feBlend mode="normal" in="SourceGraphic" in2="effect1_dropShadow_247_619" result="shape"/>
</filter>
<clipPath id="clip0_247_619">
<rect width="172" height="37" fill="white" transform="translate(4)"/>
</clipPath>
</defs>
</svg>
